<?xml version="1.0" standalone="no"?>
<!DOCTYPE svg PUBLIC "-//W3C//DTD SVG 20010904//EN"
 "http://www.w3.org/TR/2001/REC-SVG-20010904/DTD/svg10.dtd">
<svg version="1.0" xmlns="http://www.w3.org/2000/svg"
 width="512.000000pt" height="512.000000pt" viewBox="0 0 512.000000 512.000000"
 preserveAspectRatio="xMidYMid meet">

<g transform="translate(0.000000,512.000000) scale(0.100000,-0.100000)"
fill="#000000" stroke="none">
<path d="M651 5105 c-149 -33 -254 -83 -363 -175 -117 -97 -209 -237 -255
-385 l-28 -90 0 -1895 0 -1895 28 -90 c80 -259 283 -462 542 -542 l90 -28 746
0 745 0 41 27 c62 41 88 90 88 168 0 78 -26 127 -88 168 l-41 27 -720 5 -721
5 -58 23 c-111 45 -195 133 -234 246 -17 48 -18 146 -18 1886 0 1740 1 1838
18 1886 39 113 123 201 234 246 l58 23 1315 0 1315 0 57 -23 c104 -42 188
-126 230 -230 l23 -57 5 -845 5 -845 24 -38 c33 -54 88 -87 152 -94 46 -4 62
-1 109 24 44 23 60 39 82 82 l28 53 0 822 c0 766 -2 827 -19 913 -35 166 -110
302 -234 420 -119 112 -236 173 -400 207 -67 14 -229 16 -1384 15 -1076 0
-1319 -3 -1372 -14z"/>
<path d="M1850 4363 c-65 -24 -92 -51 -305 -309 -125 -151 -229 -274 -232
-274 -3 0 -51 47 -107 104 -83 86 -109 106 -146 116 -89 24 -178 -10 -230 -87
-20 -30 -25 -49 -25 -102 0 -84 19 -112 187 -278 155 -153 201 -178 328 -177
71 0 94 5 140 27 73 35 126 91 392 414 257 311 267 331 236 437 -28 92 -153
160 -238 129z"/>
<path d="M2402 3819 c-47 -14 -109 -80 -123 -131 -23 -89 12 -182 88 -229 l38
-24 361 0 360 0 41 27 c62 41 88 90 88 168 0 78 -26 127 -88 168 l-40 27 -346
2 c-201 1 -360 -2 -379 -8z"/>
<path d="M1813 3119 c-34 -16 -91 -80 -269 -295 -125 -151 -228 -274 -229
-274 -2 0 -50 47 -107 104 -84 84 -112 106 -148 116 -157 42 -292 -93 -250
-249 9 -36 36 -69 152 -188 178 -180 226 -208 358 -208 71 1 94 5 140 28 73
35 116 81 388 411 175 212 233 289 242 322 47 165 -124 309 -277 233z"/>
<path d="M2402 2589 c-47 -14 -109 -80 -123 -131 -23 -89 12 -182 88 -229 l38
-24 361 0 360 0 41 27 c62 41 88 90 88 168 0 78 -26 127 -88 168 l-40 27 -346
2 c-201 1 -360 -2 -379 -8z"/>
<path d="M4390 2384 c-36 -7 -99 -30 -140 -50 -70 -35 -110 -72 -663 -618
-324 -320 -599 -599 -613 -622 -27 -46 -274 -850 -274 -893 0 -37 19 -89 44
-124 25 -34 109 -77 151 -77 41 0 859 226 905 250 19 10 301 285 626 612 564
566 593 596 628 668 117 241 74 504 -113 691 -149 149 -347 207 -551 163z
m235 -417 c106 -72 124 -196 43 -298 l-40 -51 -144 143 c-115 115 -141 146
-132 157 17 20 90 69 113 75 42 12 123 -1 160 -26z m-651 -998 l-366 -366
-201 -56 c-111 -30 -203 -54 -205 -52 -2 1 23 88 54 191 l57 189 371 372 371
373 142 -142 143 -143 -366 -366z"/>
<path d="M1813 1909 c-34 -16 -91 -80 -269 -295 -125 -151 -228 -274 -229
-274 -2 0 -50 47 -107 104 -84 84 -112 106 -148 116 -157 42 -292 -93 -250
-249 9 -36 36 -69 152 -188 178 -180 226 -208 358 -208 71 1 94 5 140 28 73
35 116 81 388 411 175 212 233 289 242 322 47 165 -124 309 -277 233z"/>
</g>
</svg>
